# xmcd
#
# Track frame offsets:
# 150
# 11617
# 22107
# 32487
# 43087
# 56719
# 67754
# 79332
# 89594
# 104019
# 115349
# 131757
# 142654
# 154227
# 166179
# 179437
# 190739
#
# Disc length: 2764 seconds
#
#
# Revision: 0
# Processed by: cddbd v1.5.1PL0 Copyright (c) Steve Scherf et al.
# Submitted via: FreeRIP 2.70 
#
DISCID=e50aca11
DTITLE=Bill Grey - Just Fiddlin Around
DYEAR=2001
DGENRE=Traditional
TTITLE0=Brett's Reel
TTITLE1=The Farewell
TTITLE2=Tyler's Two Step - Topeka Two Step
TTITLE3=Mason's Apron
TTITLE4=Breanne
TTITLE5=Rakes of Kildare
TTITLE6=Georgiana Moon
TTITLE7=Growlin Old Man and Woman - Angus Campbell
TTITLE8=Dark Island
TTITLE9=Rannie MacLellan
TTITLE10=Lovers Waltz
TTITLE11=Spey of Spate
TTITLE12=Pat's Country
TTITLE13=Merry Scotchman Breakdown
TTITLE14=Last Waltz
TTITLE15=Red Feather Jig - Cadeau's Jig
TTITLE16=Faded Love
EXTD=Bill Grey and Marina Archibald
EXTT0=
EXTT1=
EXTT2=
EXTT3=
EXTT4=
EXTT5=
EXTT6=
EXTT7=
EXTT8=
EXTT9=
EXTT10=
EXTT11=
EXTT12=
EXTT13=
EXTT14=
EXTT15=
EXTT16=
PLAYORDER=
